<?xml version="1.0" standalone="no"?>
<!DOCTYPE svg PUBLIC "-//W3C//DTD SVG 20010904//EN"
 "http://www.w3.org/TR/2001/REC-SVG-20010904/DTD/svg10.dtd">
<svg version="1.0" xmlns="http://www.w3.org/2000/svg"
 width="358.000000pt" height="411.000000pt" viewBox="0 0 358.000000 411.000000"
 preserveAspectRatio="xMidYMid meet">

<g transform="translate(0.000000,411.000000) scale(0.100000,-0.100000)"
fill="#000000" stroke="none">
<path d="M0 2055 l0 -2055 1790 0 1790 0 -1 1388 -1 1387 -29 -120 c-76 -320
-125 -520 -151 -625 -16 -63 -50 -197 -76 -298 -34 -136 -49 -181 -59 -178
-10 4 -11 1 -3 -13 8 -16 7 -18 -11 -14 -12 4 -18 11 -15 20 3 8 6 19 6 24 0
4 6 6 14 3 11 -4 13 0 9 15 -3 12 -1 21 4 21 5 0 10 14 10 30 0 18 -5 29 -11
27 -6 -2 -10 -11 -8 -21 2 -9 -2 -16 -8 -16 -5 0 -10 -10 -11 -22 0 -22 -1
-22 -9 -3 -5 11 -9 27 -9 35 1 10 2 11 6 2 9 -23 21 -2 14 25 -7 26 -31 45
-31 24 0 -6 -11 -11 -25 -11 -15 0 -25 -6 -25 -15 0 -8 -6 -12 -14 -9 -11 4
-18 -6 -26 -35 -15 -56 -16 -114 -2 -119 7 -2 12 -8 12 -13 0 -6 9 -19 20 -31
11 -12 20 -28 20 -35 0 -7 4 -13 10 -13 5 0 7 -7 4 -15 -8 -20 -91 108 -100
152 -4 21 14 115 60 300 114 470 174 723 212 908 34 161 38 195 38 325 0 121
-4 159 -23 230 -64 233 -219 409 -401 456 -203 52 -403 -38 -539 -242 -26 -39
-60 -104 -74 -145 -23 -64 -221 -675 -354 -1094 -24 -77 -107 -328 -184 -559
-76 -230 -144 -450 -151 -487 -6 -38 -13 -68 -15 -66 -7 8 -20 142 -14 152 3
6 6 13 6 17 0 3 3 10 8 14 4 4 7 -8 7 -26 0 -44 6 -36 14 20 3 25 3 41 -1 35
-5 -5 -25 -10 -45 -10 -32 -1 -39 3 -47 26 -5 15 -6 30 -3 34 4 4 -4 5 -18 3
-17 -2 -24 -8 -22 -20 1 -10 -4 -32 -13 -49 -17 -31 -12 -56 5 -29 6 8 10 10
10 4 0 -6 -7 -17 -15 -24 -12 -10 -16 -9 -21 4 -3 9 -3 27 0 41 4 14 2 25 -3
25 -5 0 -16 -42 -25 -92 -49 -279 -36 -519 40 -707 40 -100 43 -114 9 -49 -68
131 -106 305 -106 485 0 244 11 295 190 843 132 403 233 715 386 1195 140 441
146 457 177 520 50 99 112 188 184 266 71 75 61 76 -20 1 -25 -23 -46 -47 -46
-53 0 -6 -7 -8 -16 -5 -12 5 -15 2 -10 -10 4 -12 1 -14 -14 -9 -11 4 -20 2
-20 -3 0 -6 5 -12 12 -14 9 -3 9 -6 0 -12 -7 -4 -12 -2 -12 5 0 8 -4 8 -15 -1
-12 -10 -15 -9 -15 5 0 13 -5 15 -17 9 -10 -4 -81 -9 -158 -12 -77 -2 -143 -8
-146 -14 -3 -5 -40 -8 -82 -7 -43 1 -98 1 -124 1 -27 -1 -88 -2 -138 -3 -49
-1 -82 -3 -72 -6 9 -2 15 -8 13 -12 -7 -11 -110 -3 -114 9 -6 17 -50 12 -54
-7 -2 -11 -14 -17 -40 -18 -34 -1 -37 1 -33 22 2 13 0 21 -6 18 -5 -4 -7 -10
-4 -15 3 -4 -1 -10 -7 -13 -9 -3 -7 -11 7 -28 l20 -24 -28 24 c-15 14 -27 19
-27 12 0 -6 -16 -28 -35 -47 -20 -19 -47 -53 -60 -75 -38 -59 -41 -47 -5 19
69 121 186 244 297 309 24 14 79 41 121 59 84 37 78 45 -11 15 -199 -69 -375
-228 -478 -432 -21 -42 -68 -175 -105 -295 -197 -650 -267 -870 -470 -1484
-62 -190 -124 -385 -136 -435 l-23 -90 -5 50 c-3 28 -12 60 -20 73 -14 22 -22
23 -70 11 -10 -3 -14 2 -12 14 2 9 -2 17 -8 17 -5 0 -10 -5 -10 -11 0 -5 -4
-8 -9 -5 -13 8 -43 -90 -71 -232 -5 -29 -10 -83 -10 -119 0 -37 -3 -63 -7 -59
-10 9 -5 154 8 246 16 112 31 167 139 495 170 519 349 1081 455 1430 36 121
80 259 97 307 95 272 299 477 541 545 32 8 140 17 277 23 385 15 986 32 1190
34 176 1 202 -1 265 -21 148 -47 300 -163 392 -299 54 -79 80 -132 119 -239
l33 -90 1 353 0 352 -1790 0 -1790 0 0 -2055z m1664 1631 c82 -34 106 -145 54
-256 -50 -109 -146 -179 -245 -180 -58 0 -101 27 -130 83 -39 75 9 212 101
293 77 67 153 88 220 60z m-534 -1330 c0 -2 -8 -10 -17 -17 -16 -13 -17 -12
-4 4 13 16 21 21 21 13z m-130 -209 c0 -2 -17 -19 -37 -38 l-38 -34 34 38 c33
34 41 42 41 34z m-80 -81 c0 -2 -8 -10 -17 -17 -16 -13 -17 -12 -4 4 13 16 21
21 21 13z m-170 -160 c0 -2 -8 -10 -17 -17 -16 -13 -17 -12 -4 4 13 16 21 21
21 13z m2123 -195 c40 -51 107 -139 150 -195 137 -178 177 -288 144 -392 -8
-27 -26 -89 -38 -137 l-23 -89 -13 54 c-14 54 -89 188 -110 195 -7 3 -11 -4
-11 -14 1 -10 -18 -91 -41 -181 -28 -105 -42 -177 -39 -203 3 -35 2 -38 -9
-23 -7 10 -13 29 -13 43 0 25 81 360 94 391 4 10 -6 33 -27 60 -61 80 -242
324 -255 345 -21 30 37 -34 91 -103 35 -44 53 -60 67 -57 11 2 20 0 20 -6 0
-5 -4 -9 -10 -9 -5 0 -10 -5 -10 -11 0 -6 7 -8 16 -5 9 4 24 1 33 -6 13 -10
14 -10 4 2 -20 22 -16 68 7 80 11 6 20 15 20 20 0 5 8 19 17 29 19 23 26 51
12 51 -6 0 -7 5 -4 10 3 6 0 10 -7 11 -11 0 -11 2 0 6 10 4 9 9 -4 24 -9 11
-22 28 -28 39 -6 10 -46 68 -89 127 -87 121 -54 88 56 -56z m-223 -91 c12 -17
18 -30 13 -30 -4 1 -18 17 -30 36 -27 41 -13 37 17 -6z m494 -5 c3 -8 1 -15
-4 -15 -6 0 -10 7 -10 15 0 8 2 15 4 15 2 0 6 -7 10 -15z m-214 -19 c0 -3 -4
-8 -10 -11 -5 -3 -10 -1 -10 4 0 6 5 11 10 11 6 0 10 -2 10 -4z m330 -102 c0
-8 -4 -12 -10 -9 -5 3 -10 10 -10 16 0 5 5 9 10 9 6 0 10 -7 10 -16z m-13 -56
c-3 -8 -6 -5 -6 6 -1 11 2 17 5 13 3 -3 4 -12 1 -19z m-1600 -410 c-2 -13 -4
-3 -4 22 0 25 2 35 4 23 2 -13 2 -33 0 -45z m820 -63 c67 -57 131 -176 120
-222 -3 -15 -6 -13 -17 9 -7 15 -17 25 -23 21 -5 -3 -12 0 -16 6 -5 7 -11 3
-18 -11 -98 -213 -148 -280 -236 -317 -75 -33 -106 -33 -41 -1 132 65 234 222
242 375 3 72 1 84 -20 115 -14 20 -38 40 -58 47 l-35 12 31 0 c21 1 43 -10 71
-34z m583 -239 c0 -3 -4 -8 -10 -11 -5 -3 -10 -1 -10 4 0 6 5 11 10 11 6 0 10
-2 10 -4z m-63 -50 c17 5 17 5 0 -6 -14 -9 -25 -9 -48 0 -16 7 -32 16 -35 21
-2 5 11 2 30 -6 19 -8 43 -12 53 -9z"/>
<path d="M1501 3534 c-61 -51 -63 -136 -4 -150 70 -18 148 91 113 157 -16 28
-71 25 -109 -7z"/>
<path d="M2860 1351 c0 -5 6 -14 14 -20 12 -10 13 -8 9 8 -5 21 -23 30 -23 12z"/>
<path d="M3220 1739 c0 -5 5 -7 10 -4 6 3 10 8 10 11 0 2 -4 4 -10 4 -5 0 -10
-5 -10 -11z"/>
<path d="M1512 1449 c-5 -21 -6 -39 -2 -39 4 0 11 11 14 25 4 14 11 25 16 25
15 0 12 17 -4 23 -10 4 -17 -7 -24 -34z"/>
</g>
</svg>
